<mxfile host="app.diagrams.net" modified="2023-02-22T18:13:27.844Z" agent="5.0 (Windows NT 10.0; Win64; x64) AppleWebKit/537.36 (KHTML, like Gecko) Chrome/110.0.0.0 Safari/537.36" etag="HNdiiP3UFbsRfw8a6g8C" version="20.8.22" type="github" pages="3">
  <diagram id="C5RBs43oDa-KdzZeNtuy" name="JS API">
    <mxGraphModel dx="794" dy="1631" grid="1" gridSize="10" guides="1" tooltips="1" connect="1" arrows="1" fold="1" page="1" pageScale="1" pageWidth="827" pageHeight="1169" math="0" shadow="0">
      <root>
        <mxCell id="WIyWlLk6GJQsqaUBKTNV-0" />
        <mxCell id="WIyWlLk6GJQsqaUBKTNV-1" parent="WIyWlLk6GJQsqaUBKTNV-0" />
        <mxCell id="K_RsUbor1W723diKNt5d-2" value="" style="edgeStyle=orthogonalEdgeStyle;rounded=0;orthogonalLoop=1;jettySize=auto;html=1;" parent="WIyWlLk6GJQsqaUBKTNV-1" source="WIyWlLk6GJQsqaUBKTNV-3" target="K_RsUbor1W723diKNt5d-0" edge="1">
          <mxGeometry relative="1" as="geometry" />
        </mxCell>
        <mxCell id="WIyWlLk6GJQsqaUBKTNV-3" value="enter arguments&lt;br&gt;mdLinks(path, options)" style="rounded=1;whiteSpace=wrap;html=1;fontSize=12;glass=0;strokeWidth=1;shadow=0;" parent="WIyWlLk6GJQsqaUBKTNV-1" vertex="1">
          <mxGeometry x="465" y="-1082" width="160" height="40" as="geometry" />
        </mxCell>
        <mxCell id="6Vi8k1SF5j9YucsjTljY-44" style="edgeStyle=orthogonalEdgeStyle;rounded=0;orthogonalLoop=1;jettySize=auto;html=1;fontSize=20;" parent="WIyWlLk6GJQsqaUBKTNV-1" source="WIyWlLk6GJQsqaUBKTNV-7" target="6Vi8k1SF5j9YucsjTljY-29" edge="1">
          <mxGeometry relative="1" as="geometry" />
        </mxCell>
        <mxCell id="WIyWlLk6GJQsqaUBKTNV-7" value="resolve as relative to current working directory" style="rounded=1;whiteSpace=wrap;html=1;fontSize=12;glass=0;strokeWidth=1;shadow=0;" parent="WIyWlLk6GJQsqaUBKTNV-1" vertex="1">
          <mxGeometry x="650" y="-967" width="150" height="40" as="geometry" />
        </mxCell>
        <mxCell id="6Vi8k1SF5j9YucsjTljY-118" style="edgeStyle=orthogonalEdgeStyle;rounded=0;orthogonalLoop=1;jettySize=auto;html=1;entryX=0.5;entryY=1;entryDx=0;entryDy=0;fontSize=20;exitX=0;exitY=0.5;exitDx=0;exitDy=0;" parent="WIyWlLk6GJQsqaUBKTNV-1" source="WIyWlLk6GJQsqaUBKTNV-11" target="6Vi8k1SF5j9YucsjTljY-92" edge="1">
          <mxGeometry relative="1" as="geometry" />
        </mxCell>
        <mxCell id="WIyWlLk6GJQsqaUBKTNV-11" value="&lt;font color=&quot;#004c99&quot;&gt;Return Promise:&lt;br&gt;&lt;/font&gt;&lt;font color=&quot;#ff3399&quot;&gt;[&lt;br&gt;&lt;/font&gt;&lt;font color=&quot;#00cc00&quot;&gt;&amp;nbsp; &amp;nbsp;{ /*link1*/&lt;br&gt;&lt;/font&gt;&lt;div&gt;&lt;span style=&quot;&quot;&gt; &lt;/span&gt;&lt;b&gt;&lt;span style=&quot;white-space: pre;&quot;&gt; &lt;/span&gt;href:&lt;/b&gt; URL encontrada.&lt;/div&gt;&lt;div&gt;&lt;span style=&quot;&quot;&gt; &lt;/span&gt;&lt;b&gt;&lt;span style=&quot;white-space: pre;&quot;&gt; &lt;/span&gt;text:&lt;/b&gt; Texto que aparecía dentro &lt;span style=&quot;white-space: pre;&quot;&gt; &lt;span style=&quot;white-space: pre;&quot;&gt; &lt;/span&gt;&lt;/span&gt;del link (&amp;lt;a&amp;gt;).&lt;/div&gt;&lt;div&gt;&lt;span style=&quot;&quot;&gt; &lt;/span&gt;&lt;b&gt;&lt;span style=&quot;white-space: pre;&quot;&gt; &lt;/span&gt;file: &lt;/b&gt;Ruta del archivo donde se &lt;span style=&quot;white-space: pre;&quot;&gt; &lt;span style=&quot;white-space: pre;&quot;&gt; &lt;/span&gt;&lt;/span&gt;encontró el link.&lt;/div&gt;&lt;div&gt;&lt;span style=&quot;&quot;&gt; &lt;/span&gt;&lt;b&gt;&lt;span style=&quot;white-space: pre;&quot;&gt; &lt;/span&gt;status:&lt;/b&gt; Código de respuesta &lt;span style=&quot;white-space: pre;&quot;&gt; &lt;span style=&quot;white-space: pre;&quot;&gt; &lt;/span&gt;&lt;/span&gt;HTTP.&lt;/div&gt;&lt;div&gt;&lt;span style=&quot;&quot;&gt; &lt;/span&gt;&lt;b&gt;&lt;span style=&quot;white-space: pre;&quot;&gt; &lt;/span&gt;ok:&lt;/b&gt; Mensaje fail en caso de &lt;span style=&quot;white-space: pre;&quot;&gt; &lt;span style=&quot;white-space: pre;&quot;&gt; &lt;/span&gt;&lt;/span&gt;fallo u ok en caso de éxito.&lt;/div&gt;&amp;nbsp; &amp;nbsp; &lt;font color=&quot;#00cc00&quot;&gt;}, {link2}...{etc}&lt;/font&gt;&lt;br&gt;&lt;font color=&quot;#ff3399&quot;&gt;]&lt;/font&gt;" style="rounded=1;whiteSpace=wrap;html=1;fontSize=12;glass=0;strokeWidth=1;shadow=0;align=left;labelPosition=center;verticalLabelPosition=middle;verticalAlign=middle;spacingLeft=10;spacingRight=10;" parent="WIyWlLk6GJQsqaUBKTNV-1" vertex="1">
          <mxGeometry x="925" y="-307" width="220" height="230" as="geometry" />
        </mxCell>
        <mxCell id="6Vi8k1SF5j9YucsjTljY-113" style="edgeStyle=orthogonalEdgeStyle;rounded=0;orthogonalLoop=1;jettySize=auto;html=1;entryX=0.5;entryY=1;entryDx=0;entryDy=0;fontSize=20;exitX=0;exitY=0.5;exitDx=0;exitDy=0;" parent="WIyWlLk6GJQsqaUBKTNV-1" source="veyYfPz72ynwjjnvHHJV-15" target="6Vi8k1SF5j9YucsjTljY-92" edge="1">
          <mxGeometry relative="1" as="geometry" />
        </mxCell>
        <mxCell id="veyYfPz72ynwjjnvHHJV-15" value="&lt;font color=&quot;#004c99&quot;&gt;Return Promise:&lt;br&gt;&lt;/font&gt;&lt;font color=&quot;#ff3399&quot;&gt;[&lt;br&gt;&lt;/font&gt;&lt;font color=&quot;#00cc00&quot;&gt;&amp;nbsp; &amp;nbsp;{ /*link1*/&lt;br&gt;&lt;/font&gt;&lt;div&gt;&lt;span style=&quot;&quot;&gt; &lt;/span&gt;&lt;b&gt;&lt;span style=&quot;white-space: pre;&quot;&gt; &lt;/span&gt;href:&lt;/b&gt; URL encontrada.&lt;/div&gt;&lt;div&gt;&lt;span style=&quot;&quot;&gt; &lt;/span&gt;&lt;b&gt;&lt;span style=&quot;white-space: pre;&quot;&gt; &lt;/span&gt;text:&lt;/b&gt; Texto que aparecía dentro &lt;span style=&quot;white-space: pre;&quot;&gt; &lt;/span&gt;&lt;span style=&quot;white-space: pre;&quot;&gt; &lt;/span&gt;del link (&amp;lt;a&amp;gt;).&lt;/div&gt;&lt;div&gt;&lt;span style=&quot;&quot;&gt; &lt;/span&gt;&lt;b&gt;&lt;span style=&quot;white-space: pre;&quot;&gt; &lt;/span&gt;file: &lt;/b&gt;Ruta del archivo donde se &lt;span style=&quot;white-space: pre;&quot;&gt; &lt;/span&gt;&lt;span style=&quot;white-space: pre;&quot;&gt; &lt;/span&gt;encontró el link.&lt;/div&gt;&amp;nbsp; &amp;nbsp; &lt;font color=&quot;#00cc00&quot;&gt;}, {link2}...{etc}&lt;/font&gt;&lt;br&gt;&lt;font color=&quot;#ff3399&quot;&gt;]&lt;/font&gt;" style="rounded=1;whiteSpace=wrap;html=1;fontSize=12;glass=0;strokeWidth=1;shadow=0;align=left;labelPosition=center;verticalLabelPosition=middle;verticalAlign=middle;spacingLeft=10;spacingRight=10;" parent="WIyWlLk6GJQsqaUBKTNV-1" vertex="1">
          <mxGeometry x="917.5" y="-511" width="220" height="180" as="geometry" />
        </mxCell>
        <mxCell id="6Vi8k1SF5j9YucsjTljY-109" value="" style="edgeStyle=orthogonalEdgeStyle;rounded=0;orthogonalLoop=1;jettySize=auto;html=1;fontSize=20;" parent="WIyWlLk6GJQsqaUBKTNV-1" source="veyYfPz72ynwjjnvHHJV-22" target="veyYfPz72ynwjjnvHHJV-15" edge="1">
          <mxGeometry relative="1" as="geometry" />
        </mxCell>
        <mxCell id="6Vi8k1SF5j9YucsjTljY-110" style="edgeStyle=orthogonalEdgeStyle;rounded=0;orthogonalLoop=1;jettySize=auto;html=1;entryX=1;entryY=0.25;entryDx=0;entryDy=0;fontSize=20;exitX=0.5;exitY=1;exitDx=0;exitDy=0;" parent="WIyWlLk6GJQsqaUBKTNV-1" source="veyYfPz72ynwjjnvHHJV-22" target="WIyWlLk6GJQsqaUBKTNV-11" edge="1">
          <mxGeometry relative="1" as="geometry" />
        </mxCell>
        <mxCell id="veyYfPz72ynwjjnvHHJV-22" value="Want to validate links?" style="rhombus;whiteSpace=wrap;html=1;shadow=0;fontFamily=Helvetica;fontSize=12;align=center;strokeWidth=1;spacing=6;spacingTop=-4;" parent="WIyWlLk6GJQsqaUBKTNV-1" vertex="1">
          <mxGeometry x="1180" y="-537" width="150" height="100" as="geometry" />
        </mxCell>
        <mxCell id="hiEx-QS06OPDctLlzH3i-2" style="edgeStyle=orthogonalEdgeStyle;rounded=0;orthogonalLoop=1;jettySize=auto;html=1;fontFamily=Helvetica;fontSize=12;fontColor=#004C99;entryX=0;entryY=0.5;entryDx=0;entryDy=0;" parent="WIyWlLk6GJQsqaUBKTNV-1" source="hiEx-QS06OPDctLlzH3i-1" target="WIyWlLk6GJQsqaUBKTNV-3" edge="1">
          <mxGeometry relative="1" as="geometry">
            <mxPoint x="465" y="-1037" as="targetPoint" />
          </mxGeometry>
        </mxCell>
        <mxCell id="hiEx-QS06OPDctLlzH3i-1" value="&lt;font color=&quot;#4c0099&quot; style=&quot;font-size: 20px;&quot;&gt;START&lt;/font&gt;" style="ellipse;whiteSpace=wrap;html=1;aspect=fixed;rounded=1;strokeColor=default;fontFamily=Helvetica;fontSize=12;fontColor=#004C99;fillColor=#FFD966;" parent="WIyWlLk6GJQsqaUBKTNV-1" vertex="1">
          <mxGeometry x="320" y="-1104.5" width="85" height="85" as="geometry" />
        </mxCell>
        <mxCell id="6Vi8k1SF5j9YucsjTljY-1" value="" style="edgeStyle=orthogonalEdgeStyle;rounded=0;orthogonalLoop=1;jettySize=auto;html=1;" parent="WIyWlLk6GJQsqaUBKTNV-1" source="K_RsUbor1W723diKNt5d-0" target="6Vi8k1SF5j9YucsjTljY-0" edge="1">
          <mxGeometry relative="1" as="geometry" />
        </mxCell>
        <mxCell id="6Vi8k1SF5j9YucsjTljY-24" value="" style="edgeStyle=orthogonalEdgeStyle;rounded=0;orthogonalLoop=1;jettySize=auto;html=1;fontSize=20;" parent="WIyWlLk6GJQsqaUBKTNV-1" source="K_RsUbor1W723diKNt5d-0" target="6Vi8k1SF5j9YucsjTljY-14" edge="1">
          <mxGeometry relative="1" as="geometry" />
        </mxCell>
        <mxCell id="K_RsUbor1W723diKNt5d-0" value="is valid path?" style="rhombus;whiteSpace=wrap;html=1;" parent="WIyWlLk6GJQsqaUBKTNV-1" vertex="1">
          <mxGeometry x="490" y="-997" width="110" height="80" as="geometry" />
        </mxCell>
        <mxCell id="6Vi8k1SF5j9YucsjTljY-0" value="ERROR: &lt;br&gt;&#39;invalid path&#39;" style="shape=parallelogram;perimeter=parallelogramPerimeter;whiteSpace=wrap;html=1;fixedSize=1;" parent="WIyWlLk6GJQsqaUBKTNV-1" vertex="1">
          <mxGeometry x="335" y="-987" width="120" height="60" as="geometry" />
        </mxCell>
        <mxCell id="6Vi8k1SF5j9YucsjTljY-3" value="&lt;font style=&quot;font-size: 20px;&quot;&gt;⛔&lt;/font&gt;" style="text;html=1;align=center;verticalAlign=middle;resizable=0;points=[];autosize=1;strokeColor=none;fillColor=none;" parent="WIyWlLk6GJQsqaUBKTNV-1" vertex="1">
          <mxGeometry x="450" y="-992" width="50" height="40" as="geometry" />
        </mxCell>
        <mxCell id="6Vi8k1SF5j9YucsjTljY-5" value="&lt;font style=&quot;font-size: 20px;&quot;&gt;✅&lt;/font&gt;" style="text;html=1;align=center;verticalAlign=middle;resizable=0;points=[];autosize=1;strokeColor=none;fillColor=none;" parent="WIyWlLk6GJQsqaUBKTNV-1" vertex="1">
          <mxGeometry x="540" y="-927" width="50" height="40" as="geometry" />
        </mxCell>
        <mxCell id="6Vi8k1SF5j9YucsjTljY-9" value="&lt;font style=&quot;font-size: 20px;&quot;&gt;⛔&lt;/font&gt;" style="text;html=1;align=center;verticalAlign=middle;resizable=0;points=[];autosize=1;strokeColor=none;fillColor=none;" parent="WIyWlLk6GJQsqaUBKTNV-1" vertex="1">
          <mxGeometry x="450" y="-887" width="50" height="40" as="geometry" />
        </mxCell>
        <mxCell id="6Vi8k1SF5j9YucsjTljY-17" value="" style="edgeStyle=orthogonalEdgeStyle;rounded=0;orthogonalLoop=1;jettySize=auto;html=1;fontSize=20;" parent="WIyWlLk6GJQsqaUBKTNV-1" source="6Vi8k1SF5j9YucsjTljY-14" target="6Vi8k1SF5j9YucsjTljY-16" edge="1">
          <mxGeometry relative="1" as="geometry" />
        </mxCell>
        <mxCell id="6Vi8k1SF5j9YucsjTljY-22" value="" style="edgeStyle=orthogonalEdgeStyle;rounded=0;orthogonalLoop=1;jettySize=auto;html=1;fontSize=20;" parent="WIyWlLk6GJQsqaUBKTNV-1" source="6Vi8k1SF5j9YucsjTljY-14" target="6Vi8k1SF5j9YucsjTljY-19" edge="1">
          <mxGeometry relative="1" as="geometry" />
        </mxCell>
        <mxCell id="6Vi8k1SF5j9YucsjTljY-25" value="" style="edgeStyle=orthogonalEdgeStyle;rounded=0;orthogonalLoop=1;jettySize=auto;html=1;fontSize=20;" parent="WIyWlLk6GJQsqaUBKTNV-1" source="6Vi8k1SF5j9YucsjTljY-14" target="6Vi8k1SF5j9YucsjTljY-16" edge="1">
          <mxGeometry relative="1" as="geometry" />
        </mxCell>
        <mxCell id="6Vi8k1SF5j9YucsjTljY-14" value="is valid option?" style="rhombus;whiteSpace=wrap;html=1;shadow=0;fontFamily=Helvetica;fontSize=12;align=center;strokeWidth=1;spacing=6;spacingTop=0;perimeterSpacing=0;spacingLeft=5;spacingRight=5;" parent="WIyWlLk6GJQsqaUBKTNV-1" vertex="1">
          <mxGeometry x="485" y="-887" width="120" height="80" as="geometry" />
        </mxCell>
        <mxCell id="6Vi8k1SF5j9YucsjTljY-16" value="ERROR: &lt;br&gt;&#39;invalid option&#39;" style="shape=parallelogram;perimeter=parallelogramPerimeter;whiteSpace=wrap;html=1;fixedSize=1;" parent="WIyWlLk6GJQsqaUBKTNV-1" vertex="1">
          <mxGeometry x="330" y="-877" width="120" height="60" as="geometry" />
        </mxCell>
        <mxCell id="6Vi8k1SF5j9YucsjTljY-26" value="" style="edgeStyle=orthogonalEdgeStyle;rounded=0;orthogonalLoop=1;jettySize=auto;html=1;fontSize=20;" parent="WIyWlLk6GJQsqaUBKTNV-1" source="6Vi8k1SF5j9YucsjTljY-19" target="WIyWlLk6GJQsqaUBKTNV-7" edge="1">
          <mxGeometry relative="1" as="geometry" />
        </mxCell>
        <mxCell id="6Vi8k1SF5j9YucsjTljY-30" value="" style="edgeStyle=orthogonalEdgeStyle;rounded=0;orthogonalLoop=1;jettySize=auto;html=1;fontSize=20;" parent="WIyWlLk6GJQsqaUBKTNV-1" source="6Vi8k1SF5j9YucsjTljY-19" target="6Vi8k1SF5j9YucsjTljY-29" edge="1">
          <mxGeometry relative="1" as="geometry" />
        </mxCell>
        <mxCell id="6Vi8k1SF5j9YucsjTljY-19" value="is absolute path?" style="rhombus;whiteSpace=wrap;html=1;shadow=0;fontFamily=Helvetica;fontSize=12;align=center;strokeWidth=1;spacing=6;spacingTop=0;perimeterSpacing=0;spacingLeft=5;spacingRight=5;" parent="WIyWlLk6GJQsqaUBKTNV-1" vertex="1">
          <mxGeometry x="665" y="-887" width="120" height="80" as="geometry" />
        </mxCell>
        <mxCell id="6Vi8k1SF5j9YucsjTljY-23" value="&lt;font style=&quot;font-size: 20px;&quot;&gt;✅&lt;/font&gt;" style="text;html=1;align=center;verticalAlign=middle;resizable=0;points=[];autosize=1;strokeColor=none;fillColor=none;" parent="WIyWlLk6GJQsqaUBKTNV-1" vertex="1">
          <mxGeometry x="605" y="-887" width="50" height="40" as="geometry" />
        </mxCell>
        <mxCell id="6Vi8k1SF5j9YucsjTljY-27" value="&lt;font style=&quot;font-size: 20px;&quot;&gt;⛔&lt;/font&gt;" style="text;html=1;align=center;verticalAlign=middle;resizable=0;points=[];autosize=1;strokeColor=none;fillColor=none;" parent="WIyWlLk6GJQsqaUBKTNV-1" vertex="1">
          <mxGeometry x="715" y="-927" width="50" height="40" as="geometry" />
        </mxCell>
        <mxCell id="6Vi8k1SF5j9YucsjTljY-93" value="" style="edgeStyle=orthogonalEdgeStyle;rounded=0;orthogonalLoop=1;jettySize=auto;html=1;fontSize=20;" parent="WIyWlLk6GJQsqaUBKTNV-1" source="6Vi8k1SF5j9YucsjTljY-29" target="6Vi8k1SF5j9YucsjTljY-45" edge="1">
          <mxGeometry relative="1" as="geometry" />
        </mxCell>
        <mxCell id="6Vi8k1SF5j9YucsjTljY-97" value="" style="edgeStyle=orthogonalEdgeStyle;rounded=0;orthogonalLoop=1;jettySize=auto;html=1;fontSize=20;" parent="WIyWlLk6GJQsqaUBKTNV-1" source="6Vi8k1SF5j9YucsjTljY-29" target="6Vi8k1SF5j9YucsjTljY-70" edge="1">
          <mxGeometry relative="1" as="geometry" />
        </mxCell>
        <mxCell id="6Vi8k1SF5j9YucsjTljY-29" value="is directory?" style="rhombus;whiteSpace=wrap;html=1;shadow=0;fontFamily=Helvetica;fontSize=12;align=center;strokeWidth=1;spacing=6;spacingTop=0;perimeterSpacing=0;spacingLeft=5;spacingRight=5;" parent="WIyWlLk6GJQsqaUBKTNV-1" vertex="1">
          <mxGeometry x="835" y="-887" width="120" height="80" as="geometry" />
        </mxCell>
        <mxCell id="6Vi8k1SF5j9YucsjTljY-31" value="&lt;font style=&quot;font-size: 20px;&quot;&gt;✅&lt;/font&gt;" style="text;html=1;align=center;verticalAlign=middle;resizable=0;points=[];autosize=1;strokeColor=none;fillColor=none;" parent="WIyWlLk6GJQsqaUBKTNV-1" vertex="1">
          <mxGeometry x="785" y="-887" width="50" height="40" as="geometry" />
        </mxCell>
        <mxCell id="6Vi8k1SF5j9YucsjTljY-56" value="" style="edgeStyle=orthogonalEdgeStyle;rounded=0;orthogonalLoop=1;jettySize=auto;html=1;fontSize=20;" parent="WIyWlLk6GJQsqaUBKTNV-1" source="6Vi8k1SF5j9YucsjTljY-45" target="6Vi8k1SF5j9YucsjTljY-47" edge="1">
          <mxGeometry relative="1" as="geometry" />
        </mxCell>
        <mxCell id="6Vi8k1SF5j9YucsjTljY-102" style="edgeStyle=orthogonalEdgeStyle;rounded=0;orthogonalLoop=1;jettySize=auto;html=1;entryX=0.5;entryY=0;entryDx=0;entryDy=0;fontSize=20;" parent="WIyWlLk6GJQsqaUBKTNV-1" source="6Vi8k1SF5j9YucsjTljY-45" target="6Vi8k1SF5j9YucsjTljY-66" edge="1">
          <mxGeometry relative="1" as="geometry" />
        </mxCell>
        <mxCell id="6Vi8k1SF5j9YucsjTljY-45" value="is md-file?" style="rhombus;whiteSpace=wrap;html=1;shadow=0;fontFamily=Helvetica;fontSize=12;align=center;strokeWidth=1;spacing=6;spacingTop=0;perimeterSpacing=0;spacingLeft=5;spacingRight=5;" parent="WIyWlLk6GJQsqaUBKTNV-1" vertex="1">
          <mxGeometry x="1005" y="-887" width="120" height="80" as="geometry" />
        </mxCell>
        <mxCell id="6Vi8k1SF5j9YucsjTljY-47" value="ERROR: &lt;br&gt;&#39;invalid type of file&#39;" style="shape=parallelogram;perimeter=parallelogramPerimeter;whiteSpace=wrap;html=1;fixedSize=1;" parent="WIyWlLk6GJQsqaUBKTNV-1" vertex="1">
          <mxGeometry x="992.5" y="-1002" width="145" height="60" as="geometry" />
        </mxCell>
        <mxCell id="6Vi8k1SF5j9YucsjTljY-101" value="" style="edgeStyle=orthogonalEdgeStyle;rounded=0;orthogonalLoop=1;jettySize=auto;html=1;fontSize=20;" parent="WIyWlLk6GJQsqaUBKTNV-1" source="6Vi8k1SF5j9YucsjTljY-50" target="6Vi8k1SF5j9YucsjTljY-100" edge="1">
          <mxGeometry relative="1" as="geometry" />
        </mxCell>
        <mxCell id="6Vi8k1SF5j9YucsjTljY-105" value="" style="edgeStyle=orthogonalEdgeStyle;rounded=0;orthogonalLoop=1;jettySize=auto;html=1;fontSize=20;entryX=0.5;entryY=0;entryDx=0;entryDy=0;" parent="WIyWlLk6GJQsqaUBKTNV-1" source="6Vi8k1SF5j9YucsjTljY-50" target="veyYfPz72ynwjjnvHHJV-22" edge="1">
          <mxGeometry relative="1" as="geometry">
            <mxPoint x="1255" y="-507" as="targetPoint" />
          </mxGeometry>
        </mxCell>
        <mxCell id="6Vi8k1SF5j9YucsjTljY-50" value="is there any link?" style="rhombus;whiteSpace=wrap;html=1;shadow=0;fontFamily=Helvetica;fontSize=12;align=center;strokeWidth=1;spacing=6;spacingTop=0;perimeterSpacing=0;spacingLeft=5;spacingRight=5;" parent="WIyWlLk6GJQsqaUBKTNV-1" vertex="1">
          <mxGeometry x="1195" y="-667" width="120" height="80" as="geometry" />
        </mxCell>
        <mxCell id="6Vi8k1SF5j9YucsjTljY-103" value="" style="edgeStyle=orthogonalEdgeStyle;rounded=0;orthogonalLoop=1;jettySize=auto;html=1;fontSize=20;" parent="WIyWlLk6GJQsqaUBKTNV-1" source="6Vi8k1SF5j9YucsjTljY-66" target="6Vi8k1SF5j9YucsjTljY-50" edge="1">
          <mxGeometry relative="1" as="geometry" />
        </mxCell>
        <mxCell id="6Vi8k1SF5j9YucsjTljY-66" value="read md-file and look for links" style="rounded=1;whiteSpace=wrap;html=1;fontSize=12;glass=0;strokeWidth=1;shadow=0;" parent="WIyWlLk6GJQsqaUBKTNV-1" vertex="1">
          <mxGeometry x="1035" y="-647" width="110" height="40" as="geometry" />
        </mxCell>
        <mxCell id="6Vi8k1SF5j9YucsjTljY-98" value="" style="edgeStyle=orthogonalEdgeStyle;rounded=0;orthogonalLoop=1;jettySize=auto;html=1;fontSize=20;" parent="WIyWlLk6GJQsqaUBKTNV-1" source="6Vi8k1SF5j9YucsjTljY-70" target="6Vi8k1SF5j9YucsjTljY-92" edge="1">
          <mxGeometry relative="1" as="geometry" />
        </mxCell>
        <mxCell id="6Vi8k1SF5j9YucsjTljY-70" value="read directory and look for md-files" style="rounded=1;whiteSpace=wrap;html=1;fontSize=12;glass=0;strokeWidth=1;shadow=0;" parent="WIyWlLk6GJQsqaUBKTNV-1" vertex="1">
          <mxGeometry x="821.25" y="-767" width="147.5" height="60" as="geometry" />
        </mxCell>
        <mxCell id="6Vi8k1SF5j9YucsjTljY-99" style="edgeStyle=orthogonalEdgeStyle;rounded=0;orthogonalLoop=1;jettySize=auto;html=1;fontSize=20;" parent="WIyWlLk6GJQsqaUBKTNV-1" source="6Vi8k1SF5j9YucsjTljY-92" target="6Vi8k1SF5j9YucsjTljY-66" edge="1">
          <mxGeometry relative="1" as="geometry" />
        </mxCell>
        <mxCell id="6Vi8k1SF5j9YucsjTljY-120" value="" style="edgeStyle=orthogonalEdgeStyle;rounded=0;orthogonalLoop=1;jettySize=auto;html=1;fontSize=20;" parent="WIyWlLk6GJQsqaUBKTNV-1" source="6Vi8k1SF5j9YucsjTljY-92" target="6Vi8k1SF5j9YucsjTljY-119" edge="1">
          <mxGeometry relative="1" as="geometry" />
        </mxCell>
        <mxCell id="6Vi8k1SF5j9YucsjTljY-92" value="is there an unread file?" style="rhombus;whiteSpace=wrap;html=1;shadow=0;fontFamily=Helvetica;fontSize=12;align=center;strokeWidth=1;spacing=6;spacingTop=0;perimeterSpacing=0;spacingLeft=5;spacingRight=5;" parent="WIyWlLk6GJQsqaUBKTNV-1" vertex="1">
          <mxGeometry x="781" y="-644" width="140" height="100" as="geometry" />
        </mxCell>
        <mxCell id="6Vi8k1SF5j9YucsjTljY-94" value="&lt;font style=&quot;font-size: 20px;&quot;&gt;⛔&lt;/font&gt;" style="text;html=1;align=center;verticalAlign=middle;resizable=0;points=[];autosize=1;strokeColor=none;fillColor=none;" parent="WIyWlLk6GJQsqaUBKTNV-1" vertex="1">
          <mxGeometry x="950" y="-882" width="50" height="40" as="geometry" />
        </mxCell>
        <mxCell id="6Vi8k1SF5j9YucsjTljY-100" value="Response:&lt;br&gt;&#39;No links found&quot;" style="shape=parallelogram;perimeter=parallelogramPerimeter;whiteSpace=wrap;html=1;fixedSize=1;shadow=0;strokeWidth=1;spacing=6;spacingTop=0;spacingLeft=5;spacingRight=5;" parent="WIyWlLk6GJQsqaUBKTNV-1" vertex="1">
          <mxGeometry x="1195" y="-797" width="120" height="60" as="geometry" />
        </mxCell>
        <mxCell id="6Vi8k1SF5j9YucsjTljY-131" value="" style="edgeStyle=orthogonalEdgeStyle;rounded=0;orthogonalLoop=1;jettySize=auto;html=1;fontSize=20;" parent="WIyWlLk6GJQsqaUBKTNV-1" source="6Vi8k1SF5j9YucsjTljY-119" target="6Vi8k1SF5j9YucsjTljY-130" edge="1">
          <mxGeometry relative="1" as="geometry" />
        </mxCell>
        <mxCell id="6Vi8k1SF5j9YucsjTljY-119" value="read directory and look for directories" style="rounded=1;whiteSpace=wrap;html=1;fontSize=12;glass=0;strokeWidth=1;shadow=0;" parent="WIyWlLk6GJQsqaUBKTNV-1" vertex="1">
          <mxGeometry x="581" y="-624" width="147.5" height="60" as="geometry" />
        </mxCell>
        <mxCell id="6Vi8k1SF5j9YucsjTljY-121" value="&lt;font style=&quot;font-size: 20px;&quot;&gt;⛔&lt;/font&gt;" style="text;html=1;align=center;verticalAlign=middle;resizable=0;points=[];autosize=1;strokeColor=none;fillColor=none;" parent="WIyWlLk6GJQsqaUBKTNV-1" vertex="1">
          <mxGeometry x="1055" y="-927" width="50" height="40" as="geometry" />
        </mxCell>
        <mxCell id="6Vi8k1SF5j9YucsjTljY-122" value="&lt;font style=&quot;font-size: 20px;&quot;&gt;✅&lt;/font&gt;" style="text;html=1;align=center;verticalAlign=middle;resizable=0;points=[];autosize=1;strokeColor=none;fillColor=none;" parent="WIyWlLk6GJQsqaUBKTNV-1" vertex="1">
          <mxGeometry x="1055" y="-797" width="50" height="40" as="geometry" />
        </mxCell>
        <mxCell id="6Vi8k1SF5j9YucsjTljY-123" value="&lt;font style=&quot;font-size: 20px;&quot;&gt;✅&lt;/font&gt;" style="text;html=1;align=center;verticalAlign=middle;resizable=0;points=[];autosize=1;strokeColor=none;fillColor=none;" parent="WIyWlLk6GJQsqaUBKTNV-1" vertex="1">
          <mxGeometry x="885" y="-817" width="50" height="40" as="geometry" />
        </mxCell>
        <mxCell id="6Vi8k1SF5j9YucsjTljY-124" value="&lt;font style=&quot;font-size: 20px;&quot;&gt;✅&lt;/font&gt;" style="text;html=1;align=center;verticalAlign=middle;resizable=0;points=[];autosize=1;strokeColor=none;fillColor=none;" parent="WIyWlLk6GJQsqaUBKTNV-1" vertex="1">
          <mxGeometry x="1245" y="-587" width="50" height="40" as="geometry" />
        </mxCell>
        <mxCell id="6Vi8k1SF5j9YucsjTljY-125" value="&lt;font style=&quot;font-size: 20px;&quot;&gt;⛔&lt;/font&gt;" style="text;html=1;align=center;verticalAlign=middle;resizable=0;points=[];autosize=1;strokeColor=none;fillColor=none;" parent="WIyWlLk6GJQsqaUBKTNV-1" vertex="1">
          <mxGeometry x="1245" y="-707" width="50" height="40" as="geometry" />
        </mxCell>
        <mxCell id="6Vi8k1SF5j9YucsjTljY-126" value="&lt;font style=&quot;font-size: 20px;&quot;&gt;⛔&lt;/font&gt;" style="text;html=1;align=center;verticalAlign=middle;resizable=0;points=[];autosize=1;strokeColor=none;fillColor=none;" parent="WIyWlLk6GJQsqaUBKTNV-1" vertex="1">
          <mxGeometry x="1146" y="-520" width="50" height="40" as="geometry" />
        </mxCell>
        <mxCell id="6Vi8k1SF5j9YucsjTljY-127" value="&lt;font style=&quot;font-size: 20px;&quot;&gt;✅&lt;/font&gt;" style="text;html=1;align=center;verticalAlign=middle;resizable=0;points=[];autosize=1;strokeColor=none;fillColor=none;" parent="WIyWlLk6GJQsqaUBKTNV-1" vertex="1">
          <mxGeometry x="1245" y="-427" width="50" height="40" as="geometry" />
        </mxCell>
        <mxCell id="6Vi8k1SF5j9YucsjTljY-128" value="&lt;font style=&quot;font-size: 20px;&quot;&gt;✅&lt;/font&gt;" style="text;html=1;align=center;verticalAlign=middle;resizable=0;points=[];autosize=1;strokeColor=none;fillColor=none;" parent="WIyWlLk6GJQsqaUBKTNV-1" vertex="1">
          <mxGeometry x="921" y="-628" width="50" height="40" as="geometry" />
        </mxCell>
        <mxCell id="6Vi8k1SF5j9YucsjTljY-129" value="&lt;font style=&quot;font-size: 20px;&quot;&gt;⛔&lt;/font&gt;" style="text;html=1;align=center;verticalAlign=middle;resizable=0;points=[];autosize=1;strokeColor=none;fillColor=none;" parent="WIyWlLk6GJQsqaUBKTNV-1" vertex="1">
          <mxGeometry x="741" y="-628" width="50" height="40" as="geometry" />
        </mxCell>
        <mxCell id="6Vi8k1SF5j9YucsjTljY-132" value="" style="edgeStyle=orthogonalEdgeStyle;rounded=0;orthogonalLoop=1;jettySize=auto;html=1;fontSize=20;" parent="WIyWlLk6GJQsqaUBKTNV-1" source="6Vi8k1SF5j9YucsjTljY-130" target="6Vi8k1SF5j9YucsjTljY-70" edge="1">
          <mxGeometry relative="1" as="geometry" />
        </mxCell>
        <mxCell id="6Vi8k1SF5j9YucsjTljY-134" value="" style="edgeStyle=orthogonalEdgeStyle;rounded=0;orthogonalLoop=1;jettySize=auto;html=1;fontSize=20;" parent="WIyWlLk6GJQsqaUBKTNV-1" source="6Vi8k1SF5j9YucsjTljY-130" target="6Vi8k1SF5j9YucsjTljY-133" edge="1">
          <mxGeometry relative="1" as="geometry" />
        </mxCell>
        <mxCell id="6Vi8k1SF5j9YucsjTljY-130" value="is there an unread directory?" style="rhombus;whiteSpace=wrap;html=1;shadow=0;fontFamily=Helvetica;fontSize=12;align=center;strokeWidth=1;spacing=6;spacingTop=0;perimeterSpacing=0;spacingLeft=5;spacingRight=5;" parent="WIyWlLk6GJQsqaUBKTNV-1" vertex="1">
          <mxGeometry x="584.75" y="-777" width="140" height="100" as="geometry" />
        </mxCell>
        <mxCell id="6Vi8k1SF5j9YucsjTljY-133" value="&lt;font color=&quot;#ffff00&quot; style=&quot;font-size: 20px;&quot;&gt;END&lt;/font&gt;" style="ellipse;whiteSpace=wrap;html=1;shadow=0;strokeWidth=1;spacing=6;spacingTop=0;spacingLeft=5;spacingRight=5;fillColor=#3399FF;fontSize=20;" parent="WIyWlLk6GJQsqaUBKTNV-1" vertex="1">
          <mxGeometry x="435" y="-767" width="80" height="80" as="geometry" />
        </mxCell>
        <mxCell id="6Vi8k1SF5j9YucsjTljY-135" value="&lt;font style=&quot;font-size: 20px;&quot;&gt;⛔&lt;/font&gt;" style="text;html=1;align=center;verticalAlign=middle;resizable=0;points=[];autosize=1;strokeColor=none;fillColor=none;" parent="WIyWlLk6GJQsqaUBKTNV-1" vertex="1">
          <mxGeometry x="534.75" y="-760" width="50" height="40" as="geometry" />
        </mxCell>
        <mxCell id="6Vi8k1SF5j9YucsjTljY-136" value="&lt;font style=&quot;font-size: 20px;&quot;&gt;✅&lt;/font&gt;" style="text;html=1;align=center;verticalAlign=middle;resizable=0;points=[];autosize=1;strokeColor=none;fillColor=none;" parent="WIyWlLk6GJQsqaUBKTNV-1" vertex="1">
          <mxGeometry x="735" y="-760" width="50" height="40" as="geometry" />
        </mxCell>
      </root>
    </mxGraphModel>
  </diagram>
  <diagram id="zFewrnPWPAQtB9kt6Vsq" name="CLI">
    <mxGraphModel dx="1323" dy="1939" grid="1" gridSize="10" guides="1" tooltips="1" connect="1" arrows="1" fold="1" page="1" pageScale="1" pageWidth="827" pageHeight="1169" math="0" shadow="0">
      <root>
        <mxCell id="0" />
        <mxCell id="1" parent="0" />
        <mxCell id="l2Xy6neXnwkBu9nruc2r-1" value="&lt;h1&gt;&lt;font style=&quot;font-size: 30px;&quot;&gt;Command Line Interface&lt;/font&gt;&lt;/h1&gt;&lt;p&gt;&lt;font color=&quot;#004c99&quot;&gt;&lt;span style=&quot;font-size: 20px;&quot;&gt;Ejecutable para el terminal.&lt;/span&gt;&lt;/font&gt;&lt;/p&gt;" style="text;html=1;strokeColor=none;fillColor=none;spacing=5;spacingTop=-20;whiteSpace=wrap;overflow=hidden;rounded=0;fontSize=30;fontColor=#FF3399;" parent="1" vertex="1">
          <mxGeometry x="380" y="-1150" width="367" height="260" as="geometry" />
        </mxCell>
        <mxCell id="fF7HtcsE-5X7kuMcpT92-73" style="edgeStyle=orthogonalEdgeStyle;rounded=0;orthogonalLoop=1;jettySize=auto;html=1;entryX=0.48;entryY=0.015;entryDx=0;entryDy=0;entryPerimeter=0;fontFamily=Helvetica;fontSize=12;fontColor=#004C99;" parent="1" source="3fHuWObO0ubu-4bMbvF9-1" target="fF7HtcsE-5X7kuMcpT92-68" edge="1">
          <mxGeometry relative="1" as="geometry" />
        </mxCell>
        <mxCell id="3fHuWObO0ubu-4bMbvF9-1" value="&lt;font color=&quot;#000000&quot; style=&quot;font-size: 12px;&quot;&gt;START&lt;br&gt;md-links &amp;lt;path-to-file&amp;gt; [options]&lt;br&gt;&lt;/font&gt;" style="rounded=1;whiteSpace=wrap;html=1;fontSize=20;fontColor=#004C99;" parent="1" vertex="1">
          <mxGeometry x="90" y="-1020" width="190" height="80" as="geometry" />
        </mxCell>
        <mxCell id="fF7HtcsE-5X7kuMcpT92-37" style="edgeStyle=orthogonalEdgeStyle;rounded=0;orthogonalLoop=1;jettySize=auto;html=1;entryX=0.5;entryY=0;entryDx=0;entryDy=0;fontFamily=Helvetica;fontSize=20;fontColor=#004C99;" parent="1" source="fF7HtcsE-5X7kuMcpT92-1" edge="1">
          <mxGeometry relative="1" as="geometry">
            <mxPoint x="185" y="-594.9999999999999" as="targetPoint" />
          </mxGeometry>
        </mxCell>
        <mxCell id="fF7HtcsE-5X7kuMcpT92-39" value="" style="edgeStyle=orthogonalEdgeStyle;rounded=0;orthogonalLoop=1;jettySize=auto;html=1;fontFamily=Helvetica;fontSize=20;fontColor=#004C99;startArrow=none;" parent="1" source="fF7HtcsE-5X7kuMcpT92-40" target="fF7HtcsE-5X7kuMcpT92-38" edge="1">
          <mxGeometry relative="1" as="geometry" />
        </mxCell>
        <mxCell id="fF7HtcsE-5X7kuMcpT92-1" value="&lt;font color=&quot;#000000&quot; style=&quot;font-size: 12px;&quot;&gt;there is an option?&lt;br&gt;&lt;/font&gt;" style="rounded=1;whiteSpace=wrap;html=1;fontSize=20;fontColor=#004C99;" parent="1" vertex="1">
          <mxGeometry x="90" y="-755" width="190" height="80" as="geometry" />
        </mxCell>
        <mxCell id="fF7HtcsE-5X7kuMcpT92-54" value="" style="edgeStyle=orthogonalEdgeStyle;rounded=0;orthogonalLoop=1;jettySize=auto;html=1;fontFamily=Helvetica;fontSize=12;fontColor=#000000;" parent="1" edge="1">
          <mxGeometry relative="1" as="geometry">
            <mxPoint x="185" y="-535" as="sourcePoint" />
            <mxPoint x="185" y="-465" as="targetPoint" />
          </mxGeometry>
        </mxCell>
        <mxCell id="fF7HtcsE-5X7kuMcpT92-25" value="No" style="text;html=1;align=center;verticalAlign=middle;resizable=0;points=[];autosize=1;strokeColor=none;fillColor=none;fontSize=20;fontFamily=Helvetica;fontColor=#004C99;" parent="1" vertex="1">
          <mxGeometry x="140" y="-665" width="50" height="40" as="geometry" />
        </mxCell>
        <mxCell id="fF7HtcsE-5X7kuMcpT92-80" value="" style="edgeStyle=orthogonalEdgeStyle;rounded=0;orthogonalLoop=1;jettySize=auto;html=1;fontFamily=Helvetica;fontSize=12;fontColor=#004C99;" parent="1" source="fF7HtcsE-5X7kuMcpT92-38" target="fF7HtcsE-5X7kuMcpT92-79" edge="1">
          <mxGeometry relative="1" as="geometry" />
        </mxCell>
        <mxCell id="fF7HtcsE-5X7kuMcpT92-38" value="--stats" style="whiteSpace=wrap;html=1;fontSize=12;fontColor=#000000;rounded=1;fontStyle=1" parent="1" vertex="1">
          <mxGeometry x="600" y="-675" width="120" height="60" as="geometry" />
        </mxCell>
        <mxCell id="fF7HtcsE-5X7kuMcpT92-43" value="" style="edgeStyle=orthogonalEdgeStyle;rounded=0;orthogonalLoop=1;jettySize=auto;html=1;fontFamily=Helvetica;fontSize=20;fontColor=#004C99;" parent="1" target="fF7HtcsE-5X7kuMcpT92-42" edge="1">
          <mxGeometry relative="1" as="geometry">
            <mxPoint x="470" y="-715" as="sourcePoint" />
            <Array as="points">
              <mxPoint x="430" y="-715" />
            </Array>
          </mxGeometry>
        </mxCell>
        <mxCell id="fF7HtcsE-5X7kuMcpT92-51" style="edgeStyle=orthogonalEdgeStyle;rounded=0;orthogonalLoop=1;jettySize=auto;html=1;entryX=0.5;entryY=0;entryDx=0;entryDy=0;fontFamily=Helvetica;fontSize=12;fontColor=#000000;" parent="1" source="fF7HtcsE-5X7kuMcpT92-40" target="fF7HtcsE-5X7kuMcpT92-45" edge="1">
          <mxGeometry relative="1" as="geometry" />
        </mxCell>
        <mxCell id="fF7HtcsE-5X7kuMcpT92-40" value="Yes" style="text;html=1;align=center;verticalAlign=middle;resizable=0;points=[];autosize=1;strokeColor=none;fillColor=none;fontSize=20;fontFamily=Helvetica;fontColor=#004C99;rotation=0;" parent="1" vertex="1">
          <mxGeometry x="330" y="-735" width="60" height="40" as="geometry" />
        </mxCell>
        <mxCell id="fF7HtcsE-5X7kuMcpT92-41" value="" style="edgeStyle=orthogonalEdgeStyle;rounded=0;orthogonalLoop=1;jettySize=auto;html=1;fontFamily=Helvetica;fontSize=20;fontColor=#004C99;endArrow=none;" parent="1" source="fF7HtcsE-5X7kuMcpT92-1" target="fF7HtcsE-5X7kuMcpT92-40" edge="1">
          <mxGeometry relative="1" as="geometry">
            <mxPoint x="290" y="-819.9999999999999" as="sourcePoint" />
            <mxPoint x="405" y="-819.9999999999999" as="targetPoint" />
          </mxGeometry>
        </mxCell>
        <mxCell id="fF7HtcsE-5X7kuMcpT92-48" value="" style="edgeStyle=orthogonalEdgeStyle;rounded=0;orthogonalLoop=1;jettySize=auto;html=1;fontFamily=Helvetica;fontSize=12;fontColor=#000000;" parent="1" source="fF7HtcsE-5X7kuMcpT92-42" target="fF7HtcsE-5X7kuMcpT92-47" edge="1">
          <mxGeometry relative="1" as="geometry" />
        </mxCell>
        <mxCell id="fF7HtcsE-5X7kuMcpT92-42" value="--validate" style="whiteSpace=wrap;html=1;rounded=1;strokeColor=default;fontFamily=Helvetica;fontSize=12;fontColor=#000000;fillColor=default;fontStyle=1" parent="1" vertex="1">
          <mxGeometry x="370" y="-675" width="120" height="60" as="geometry" />
        </mxCell>
        <mxCell id="fF7HtcsE-5X7kuMcpT92-78" style="edgeStyle=orthogonalEdgeStyle;rounded=0;orthogonalLoop=1;jettySize=auto;html=1;fontFamily=Helvetica;fontSize=12;fontColor=#004C99;" parent="1" source="fF7HtcsE-5X7kuMcpT92-45" target="fF7HtcsE-5X7kuMcpT92-77" edge="1">
          <mxGeometry relative="1" as="geometry" />
        </mxCell>
        <mxCell id="fF7HtcsE-5X7kuMcpT92-45" value="--stats --validate" style="whiteSpace=wrap;html=1;rounded=1;strokeColor=default;fontFamily=Helvetica;fontSize=12;fontColor=#000000;fillColor=default;fontStyle=1" parent="1" vertex="1">
          <mxGeometry x="840" y="-675" width="120" height="60" as="geometry" />
        </mxCell>
        <mxCell id="fF7HtcsE-5X7kuMcpT92-57" value="" style="edgeStyle=orthogonalEdgeStyle;rounded=0;orthogonalLoop=1;jettySize=auto;html=1;fontFamily=Helvetica;fontSize=12;fontColor=#FFFFFF;" parent="1" source="fF7HtcsE-5X7kuMcpT92-47" target="fF7HtcsE-5X7kuMcpT92-56" edge="1">
          <mxGeometry relative="1" as="geometry" />
        </mxCell>
        <mxCell id="fF7HtcsE-5X7kuMcpT92-47" value="HTTP request" style="whiteSpace=wrap;html=1;fontColor=#000000;rounded=1;fontStyle=1;" parent="1" vertex="1">
          <mxGeometry x="370" y="-560" width="120" height="30" as="geometry" />
        </mxCell>
        <mxCell id="fF7HtcsE-5X7kuMcpT92-53" value="&lt;span style=&quot;font-weight: normal;&quot;&gt;$ md-links ./some/example.md&lt;/span&gt;&lt;div&gt;&lt;span style=&quot;font-weight: normal;&quot;&gt;./some/example.md http://algo.com/2/3/ Link a algo&lt;/span&gt;&lt;/div&gt;&lt;div&gt;&lt;span style=&quot;font-weight: normal;&quot;&gt;./some/example.md https://otra-cosa.net/algun-doc.html algún doc&lt;/span&gt;&lt;/div&gt;&lt;div&gt;&lt;span style=&quot;font-weight: normal;&quot;&gt;./some/example.md http://google.com/ Google&lt;/span&gt;&lt;/div&gt;" style="whiteSpace=wrap;html=1;fontColor=#FFFFFF;fontStyle=1;startSize=30;align=left;labelBackgroundColor=#000000;" parent="1" vertex="1">
          <mxGeometry x="25" y="-465" width="305" height="65" as="geometry" />
        </mxCell>
        <mxCell id="fF7HtcsE-5X7kuMcpT92-55" value="example" style="text;html=1;align=center;verticalAlign=middle;resizable=0;points=[];autosize=1;strokeColor=none;fillColor=none;fontSize=12;fontFamily=Helvetica;fontColor=#000000;" parent="1" vertex="1">
          <mxGeometry x="180" y="-515" width="70" height="30" as="geometry" />
        </mxCell>
        <mxCell id="fF7HtcsE-5X7kuMcpT92-59" value="" style="edgeStyle=orthogonalEdgeStyle;rounded=0;orthogonalLoop=1;jettySize=auto;html=1;fontFamily=Helvetica;fontSize=12;fontColor=#FFFFFF;" parent="1" source="fF7HtcsE-5X7kuMcpT92-56" target="fF7HtcsE-5X7kuMcpT92-58" edge="1">
          <mxGeometry relative="1" as="geometry" />
        </mxCell>
        <mxCell id="fF7HtcsE-5X7kuMcpT92-62" value="" style="edgeStyle=orthogonalEdgeStyle;rounded=0;orthogonalLoop=1;jettySize=auto;html=1;fontFamily=Helvetica;fontSize=12;fontColor=#004C99;" parent="1" source="fF7HtcsE-5X7kuMcpT92-56" target="fF7HtcsE-5X7kuMcpT92-61" edge="1">
          <mxGeometry relative="1" as="geometry" />
        </mxCell>
        <mxCell id="fF7HtcsE-5X7kuMcpT92-56" value="&lt;span style=&quot;font-weight: normal;&quot;&gt;for each link:&lt;br&gt;is URL ok?&lt;/span&gt;" style="whiteSpace=wrap;html=1;fontColor=#000000;rounded=1;fontStyle=1;" parent="1" vertex="1">
          <mxGeometry x="370" y="-350" width="120" height="40" as="geometry" />
        </mxCell>
        <mxCell id="fF7HtcsE-5X7kuMcpT92-91" style="edgeStyle=orthogonalEdgeStyle;rounded=0;orthogonalLoop=1;jettySize=auto;html=1;fontFamily=Helvetica;fontSize=12;fontColor=#004C99;" parent="1" source="fF7HtcsE-5X7kuMcpT92-58" target="fF7HtcsE-5X7kuMcpT92-90" edge="1">
          <mxGeometry relative="1" as="geometry" />
        </mxCell>
        <mxCell id="fF7HtcsE-5X7kuMcpT92-58" value="&lt;span style=&quot;font-weight: normal;&quot;&gt;print path + link + ok + status + text&lt;br&gt;&lt;/span&gt;" style="whiteSpace=wrap;html=1;fontColor=#000000;rounded=1;fontStyle=1;" parent="1" vertex="1">
          <mxGeometry x="370" y="-260" width="120" height="60" as="geometry" />
        </mxCell>
        <mxCell id="fF7HtcsE-5X7kuMcpT92-60" value="&lt;font color=&quot;#004c99&quot;&gt;Yes&lt;/font&gt;" style="text;html=1;align=center;verticalAlign=middle;resizable=0;points=[];autosize=1;strokeColor=none;fillColor=none;fontSize=12;fontFamily=Helvetica;fontColor=#FFFFFF;" parent="1" vertex="1">
          <mxGeometry x="430" y="-295" width="40" height="30" as="geometry" />
        </mxCell>
        <mxCell id="fF7HtcsE-5X7kuMcpT92-92" value="" style="edgeStyle=orthogonalEdgeStyle;rounded=0;orthogonalLoop=1;jettySize=auto;html=1;fontFamily=Helvetica;fontSize=12;fontColor=#004C99;" parent="1" source="fF7HtcsE-5X7kuMcpT92-61" target="fF7HtcsE-5X7kuMcpT92-90" edge="1">
          <mxGeometry relative="1" as="geometry" />
        </mxCell>
        <mxCell id="fF7HtcsE-5X7kuMcpT92-61" value="&lt;span style=&quot;font-weight: 400;&quot;&gt;print path + link + fail + status + text&lt;/span&gt;" style="whiteSpace=wrap;html=1;fontColor=#000000;rounded=1;fontStyle=1;" parent="1" vertex="1">
          <mxGeometry x="510" y="-260" width="120" height="60" as="geometry" />
        </mxCell>
        <mxCell id="fF7HtcsE-5X7kuMcpT92-63" value="No" style="text;html=1;align=center;verticalAlign=middle;resizable=0;points=[];autosize=1;strokeColor=none;fillColor=none;fontSize=12;fontFamily=Helvetica;fontColor=#004C99;" parent="1" vertex="1">
          <mxGeometry x="510" y="-335" width="40" height="30" as="geometry" />
        </mxCell>
        <mxCell id="fF7HtcsE-5X7kuMcpT92-74" style="edgeStyle=orthogonalEdgeStyle;rounded=0;orthogonalLoop=1;jettySize=auto;html=1;fontFamily=Helvetica;fontSize=12;fontColor=#004C99;" parent="1" source="fF7HtcsE-5X7kuMcpT92-68" target="fF7HtcsE-5X7kuMcpT92-1" edge="1">
          <mxGeometry relative="1" as="geometry" />
        </mxCell>
        <mxCell id="fF7HtcsE-5X7kuMcpT92-68" value="default behavior:" style="swimlane;fontStyle=1;childLayout=stackLayout;horizontal=1;startSize=30;horizontalStack=0;resizeParent=1;resizeParentMax=0;resizeLast=0;collapsible=1;marginBottom=0;fontSize=12;fontColor=#000000;" parent="1" vertex="1">
          <mxGeometry x="90" y="-890" width="220" height="90" as="geometry">
            <mxRectangle x="90" y="-890" width="120" height="30" as="alternateBounds" />
          </mxGeometry>
        </mxCell>
        <mxCell id="fF7HtcsE-5X7kuMcpT92-69" value="identify type of file" style="text;strokeColor=none;fillColor=none;align=left;verticalAlign=middle;spacingLeft=4;spacingRight=4;overflow=hidden;points=[[0,0.5],[1,0.5]];portConstraint=eastwest;rotatable=0;fontSize=12;fontColor=#000000;" parent="fF7HtcsE-5X7kuMcpT92-68" vertex="1">
          <mxGeometry y="30" width="220" height="30" as="geometry" />
        </mxCell>
        <mxCell id="fF7HtcsE-5X7kuMcpT92-70" value="analize md-file" style="text;strokeColor=none;fillColor=none;align=left;verticalAlign=middle;spacingLeft=4;spacingRight=4;overflow=hidden;points=[[0,0.5],[1,0.5]];portConstraint=eastwest;rotatable=0;fontSize=12;fontColor=#000000;" parent="fF7HtcsE-5X7kuMcpT92-68" vertex="1">
          <mxGeometry y="60" width="220" height="30" as="geometry" />
        </mxCell>
        <mxCell id="fF7HtcsE-5X7kuMcpT92-72" value="&lt;span style=&quot;color: rgb(0, 0, 0); text-align: left;&quot;&gt;for each link:&lt;/span&gt;&lt;br style=&quot;padding: 0px; margin: 0px; color: rgb(0, 0, 0); text-align: left;&quot;&gt;&lt;span style=&quot;color: rgb(0, 0, 0); text-align: left;&quot;&gt;print path + link&amp;nbsp; + text (50 char. max)&lt;/span&gt;" style="whiteSpace=wrap;html=1;rounded=1;strokeColor=default;fontFamily=Helvetica;fontSize=12;fontColor=#004C99;fillColor=default;" parent="1" vertex="1">
          <mxGeometry x="120" y="-595" width="130" height="60" as="geometry" />
        </mxCell>
        <mxCell id="fF7HtcsE-5X7kuMcpT92-82" value="" style="edgeStyle=orthogonalEdgeStyle;rounded=0;orthogonalLoop=1;jettySize=auto;html=1;fontFamily=Helvetica;fontSize=12;fontColor=#004C99;" parent="1" source="fF7HtcsE-5X7kuMcpT92-77" target="fF7HtcsE-5X7kuMcpT92-81" edge="1">
          <mxGeometry relative="1" as="geometry" />
        </mxCell>
        <mxCell id="fF7HtcsE-5X7kuMcpT92-77" value="HTTP request" style="whiteSpace=wrap;html=1;fontColor=#000000;rounded=1;fontStyle=1;" parent="1" vertex="1">
          <mxGeometry x="840" y="-565" width="120" height="30" as="geometry" />
        </mxCell>
        <mxCell id="fF7HtcsE-5X7kuMcpT92-84" value="" style="edgeStyle=orthogonalEdgeStyle;rounded=0;orthogonalLoop=1;jettySize=auto;html=1;fontFamily=Helvetica;fontSize=12;fontColor=#004C99;" parent="1" source="fF7HtcsE-5X7kuMcpT92-79" edge="1">
          <mxGeometry relative="1" as="geometry">
            <mxPoint x="660" y="-462.5" as="targetPoint" />
          </mxGeometry>
        </mxCell>
        <mxCell id="fF7HtcsE-5X7kuMcpT92-79" value="&lt;span style=&quot;font-weight: normal;&quot;&gt;basic stadistics&lt;/span&gt;" style="whiteSpace=wrap;html=1;fontColor=#000000;rounded=1;fontStyle=1;" parent="1" vertex="1">
          <mxGeometry x="600" y="-565" width="120" height="35" as="geometry" />
        </mxCell>
        <mxCell id="fF7HtcsE-5X7kuMcpT92-88" style="edgeStyle=orthogonalEdgeStyle;rounded=0;orthogonalLoop=1;jettySize=auto;html=1;entryX=0.5;entryY=0;entryDx=0;entryDy=0;fontFamily=Helvetica;fontSize=12;fontColor=#004C99;" parent="1" source="fF7HtcsE-5X7kuMcpT92-81" target="fF7HtcsE-5X7kuMcpT92-87" edge="1">
          <mxGeometry relative="1" as="geometry" />
        </mxCell>
        <mxCell id="fF7HtcsE-5X7kuMcpT92-81" value="&lt;span style=&quot;font-weight: normal;&quot;&gt;stadistics that need validation results&lt;/span&gt;" style="whiteSpace=wrap;html=1;fontColor=#000000;rounded=1;fontStyle=1;" parent="1" vertex="1">
          <mxGeometry x="840" y="-500" width="120" height="60" as="geometry" />
        </mxCell>
        <mxCell id="fF7HtcsE-5X7kuMcpT92-85" value="example" style="text;html=1;align=center;verticalAlign=middle;resizable=0;points=[];autosize=1;strokeColor=none;fillColor=none;fontSize=12;fontFamily=Helvetica;fontColor=#004C99;" parent="1" vertex="1">
          <mxGeometry x="590" y="-515" width="70" height="30" as="geometry" />
        </mxCell>
        <mxCell id="fF7HtcsE-5X7kuMcpT92-86" value="&lt;div&gt;&lt;span style=&quot;font-weight: 400;&quot;&gt;$ md-links ./some/example.md --stats&lt;/span&gt;&lt;/div&gt;&lt;div&gt;&lt;span style=&quot;font-weight: 400;&quot;&gt;Total: 3&lt;/span&gt;&lt;/div&gt;&lt;div&gt;&lt;span style=&quot;font-weight: 400;&quot;&gt;Unique: 3&lt;/span&gt;&lt;/div&gt;" style="whiteSpace=wrap;html=1;fontColor=#FFFFFF;fontStyle=1;startSize=30;align=left;labelBackgroundColor=#000000;" parent="1" vertex="1">
          <mxGeometry x="550" y="-460" width="210" height="50" as="geometry" />
        </mxCell>
        <mxCell id="fF7HtcsE-5X7kuMcpT92-87" value="&lt;div&gt;&lt;span style=&quot;font-weight: 400;&quot;&gt;$ md-links ./some/example.md --stats --validate&lt;/span&gt;&lt;/div&gt;&lt;div&gt;&lt;span style=&quot;font-weight: 400;&quot;&gt;Total: 3&lt;/span&gt;&lt;/div&gt;&lt;div&gt;&lt;span style=&quot;font-weight: 400;&quot;&gt;Unique: 3&lt;/span&gt;&lt;/div&gt;&lt;div&gt;&lt;span style=&quot;font-weight: 400;&quot;&gt;Broken: 1&lt;/span&gt;&lt;/div&gt;" style="whiteSpace=wrap;html=1;fontColor=#FFFFFF;fontStyle=1;startSize=30;align=left;labelBackgroundColor=#000000;" parent="1" vertex="1">
          <mxGeometry x="770" y="-365" width="260" height="55" as="geometry" />
        </mxCell>
        <mxCell id="fF7HtcsE-5X7kuMcpT92-89" value="example" style="text;html=1;align=center;verticalAlign=middle;resizable=0;points=[];autosize=1;strokeColor=none;fillColor=none;fontSize=12;fontFamily=Helvetica;fontColor=#004C99;" parent="1" vertex="1">
          <mxGeometry x="890" y="-410" width="70" height="30" as="geometry" />
        </mxCell>
        <mxCell id="fF7HtcsE-5X7kuMcpT92-90" value="&lt;div&gt;&lt;span style=&quot;font-weight: 400;&quot;&gt;$ md-links ./some/example.md --validate&lt;/span&gt;&lt;/div&gt;&lt;div&gt;&lt;span style=&quot;font-weight: 400;&quot;&gt;./some/example.md http://algo.com/2/3/ ok 200 Link a algo&lt;/span&gt;&lt;/div&gt;&lt;div&gt;&lt;span style=&quot;font-weight: 400;&quot;&gt;./some/example.md https://otra-cosa.net/algun-doc.html fail 404 algún doc&lt;/span&gt;&lt;/div&gt;&lt;div&gt;&lt;span style=&quot;font-weight: 400;&quot;&gt;./some/example.md http://google.com/ ok 301 Google&lt;/span&gt;&lt;/div&gt;" style="whiteSpace=wrap;html=1;fontColor=#FFFFFF;fontStyle=1;startSize=30;align=left;labelBackgroundColor=#000000;" parent="1" vertex="1">
          <mxGeometry x="355" y="-130" width="305" height="85" as="geometry" />
        </mxCell>
        <mxCell id="fF7HtcsE-5X7kuMcpT92-93" value="ex" style="text;html=1;align=center;verticalAlign=middle;resizable=0;points=[];autosize=1;strokeColor=none;fillColor=none;fontSize=12;fontFamily=Helvetica;fontColor=#004C99;" parent="1" vertex="1">
          <mxGeometry x="480" y="-190" width="40" height="30" as="geometry" />
        </mxCell>
      </root>
    </mxGraphModel>
  </diagram>
  <diagram id="ChPE6TZSw7vkX_jWgejQ" name="Página-3">
    <mxGraphModel dx="794" dy="462" grid="1" gridSize="10" guides="1" tooltips="1" connect="1" arrows="1" fold="1" page="1" pageScale="1" pageWidth="827" pageHeight="1169" math="0" shadow="0">
      <root>
        <mxCell id="0" />
        <mxCell id="1" parent="0" />
        <mxCell id="NG2AEQB0KFfoQAZyRoDc-1" value="S (start)" style="ellipse;whiteSpace=wrap;html=1;rounded=1;strokeColor=default;fontFamily=Helvetica;fontSize=12;fontColor=#004C99;fillColor=default;" parent="1" vertex="1">
          <mxGeometry x="50" y="100" width="120" height="80" as="geometry" />
        </mxCell>
        <mxCell id="NG2AEQB0KFfoQAZyRoDc-2" value="E (end)" style="ellipse;whiteSpace=wrap;html=1;rounded=1;strokeColor=default;fontFamily=Helvetica;fontSize=12;fontColor=#004C99;fillColor=default;" parent="1" vertex="1">
          <mxGeometry x="50" y="190" width="120" height="80" as="geometry" />
        </mxCell>
        <mxCell id="NG2AEQB0KFfoQAZyRoDc-3" value="terminales" style="text;html=1;align=center;verticalAlign=middle;resizable=0;points=[];autosize=1;strokeColor=none;fillColor=none;fontSize=12;fontFamily=Helvetica;fontColor=#004C99;" parent="1" vertex="1">
          <mxGeometry x="70" y="60" width="80" height="30" as="geometry" />
        </mxCell>
        <mxCell id="NG2AEQB0KFfoQAZyRoDc-5" value="" style="endArrow=classic;html=1;rounded=0;fontFamily=Helvetica;fontSize=12;fontColor=#004C99;" parent="1" edge="1">
          <mxGeometry width="50" height="50" relative="1" as="geometry">
            <mxPoint x="270" y="105" as="sourcePoint" />
            <mxPoint x="350" y="105" as="targetPoint" />
          </mxGeometry>
        </mxCell>
        <mxCell id="NG2AEQB0KFfoQAZyRoDc-6" value="secuencia" style="text;html=1;align=center;verticalAlign=middle;resizable=0;points=[];autosize=1;strokeColor=none;fillColor=none;fontSize=12;fontFamily=Helvetica;fontColor=#004C99;" parent="1" vertex="1">
          <mxGeometry x="270" y="65" width="80" height="30" as="geometry" />
        </mxCell>
        <mxCell id="NG2AEQB0KFfoQAZyRoDc-7" value="procesos/acciones" style="text;html=1;align=center;verticalAlign=middle;resizable=0;points=[];autosize=1;strokeColor=none;fillColor=none;fontSize=12;fontFamily=Helvetica;fontColor=#004C99;" parent="1" vertex="1">
          <mxGeometry x="414" y="60" width="120" height="30" as="geometry" />
        </mxCell>
        <mxCell id="NG2AEQB0KFfoQAZyRoDc-8" value="" style="rounded=0;whiteSpace=wrap;html=1;strokeColor=default;fontFamily=Helvetica;fontSize=12;fontColor=#004C99;fillColor=default;" parent="1" vertex="1">
          <mxGeometry x="414" y="110" width="120" height="60" as="geometry" />
        </mxCell>
        <mxCell id="NG2AEQB0KFfoQAZyRoDc-12" value="" style="edgeStyle=orthogonalEdgeStyle;rounded=0;orthogonalLoop=1;jettySize=auto;html=1;fontFamily=Helvetica;fontSize=12;fontColor=#004C99;" parent="1" source="NG2AEQB0KFfoQAZyRoDc-9" edge="1">
          <mxGeometry relative="1" as="geometry">
            <mxPoint x="750" y="130" as="targetPoint" />
          </mxGeometry>
        </mxCell>
        <mxCell id="NG2AEQB0KFfoQAZyRoDc-15" value="" style="edgeStyle=orthogonalEdgeStyle;rounded=0;orthogonalLoop=1;jettySize=auto;html=1;fontFamily=Helvetica;fontSize=12;fontColor=#004C99;" parent="1" source="NG2AEQB0KFfoQAZyRoDc-9" edge="1">
          <mxGeometry relative="1" as="geometry">
            <mxPoint x="600" y="130" as="targetPoint" />
          </mxGeometry>
        </mxCell>
        <mxCell id="NG2AEQB0KFfoQAZyRoDc-9" value="?" style="rhombus;whiteSpace=wrap;html=1;rounded=1;strokeColor=default;fontFamily=Helvetica;fontSize=12;fontColor=#004C99;fillColor=default;" parent="1" vertex="1">
          <mxGeometry x="640" y="90" width="80" height="80" as="geometry" />
        </mxCell>
        <mxCell id="NG2AEQB0KFfoQAZyRoDc-10" value="decisiones" style="text;html=1;align=center;verticalAlign=middle;resizable=0;points=[];autosize=1;strokeColor=none;fillColor=none;fontSize=12;fontFamily=Helvetica;fontColor=#004C99;" parent="1" vertex="1">
          <mxGeometry x="640" y="60" width="80" height="30" as="geometry" />
        </mxCell>
        <mxCell id="NG2AEQB0KFfoQAZyRoDc-16" value="no" style="text;html=1;align=center;verticalAlign=middle;resizable=0;points=[];autosize=1;strokeColor=none;fillColor=none;fontSize=12;fontFamily=Helvetica;fontColor=#004C99;" parent="1" vertex="1">
          <mxGeometry x="610" y="105" width="40" height="30" as="geometry" />
        </mxCell>
        <mxCell id="NG2AEQB0KFfoQAZyRoDc-17" value="sí" style="text;html=1;align=center;verticalAlign=middle;resizable=0;points=[];autosize=1;strokeColor=none;fillColor=none;fontSize=12;fontFamily=Helvetica;fontColor=#004C99;" parent="1" vertex="1">
          <mxGeometry x="715" y="95" width="30" height="30" as="geometry" />
        </mxCell>
        <mxCell id="NG2AEQB0KFfoQAZyRoDc-18" value="interactúa con el exterior" style="shape=parallelogram;perimeter=parallelogramPerimeter;whiteSpace=wrap;html=1;fixedSize=1;rounded=1;strokeColor=default;fontFamily=Helvetica;fontSize=12;fontColor=#004C99;fillColor=default;" parent="1" vertex="1">
          <mxGeometry x="270" y="290" width="120" height="60" as="geometry" />
        </mxCell>
        <mxCell id="NG2AEQB0KFfoQAZyRoDc-19" value="Entrada/salida" style="text;html=1;align=center;verticalAlign=middle;resizable=0;points=[];autosize=1;strokeColor=none;fillColor=none;fontSize=12;fontFamily=Helvetica;fontColor=#004C99;" parent="1" vertex="1">
          <mxGeometry x="290" y="250" width="100" height="30" as="geometry" />
        </mxCell>
      </root>
    </mxGraphModel>
  </diagram>
</mxfile>
